<svg xmlns="http://www.w3.org/2000/svg" xmlns:xlink="http://www.w3.org/1999/xlink" width="48" height="48" viewBox="0 0 3872.97 3872.97"><defs><clipPath id="clip-0"><path clip-rule="nonzero" d="M 0 0 L 3872.96875 0 L 3872.96875 3872.96875 L 0 3872.96875 Z M 0 0 " /></clipPath><clipPath id="clip-1"><path clip-rule="nonzero" d="M 697 826 L 3176 826 L 3176 3047 L 697 3047 Z M 697 826 " /></clipPath><clipPath id="clip-2"><path clip-rule="evenodd" d="M 1626.769531 2196.371094 C 1606.019531 2196.371094 1589.21875 2179.570312 1589.21875 2158.820312 L 1589.21875 1828 C 1589.21875 1779.53125 1664.320312 1779.519531 1664.320312 1828 L 1664.320312 2158.820312 C 1664.308594 2179.570312 1647.511719 2196.371094 1626.769531 2196.371094 Z M 1374.980469 2197.140625 C 1293.308594 2197.140625 1230.558594 2143.199219 1234.03125 2058.078125 L 1234.03125 1827.410156 C 1234.03125 1778.941406 1309.148438 1778.941406 1309.148438 1827.410156 C 1309.148438 1875.398438 1312.121094 2026.878906 1309 2063.300781 C 1302.238281 2141.898438 1447.949219 2141.78125 1440.988281 2063.300781 C 1437.859375 2028 1440.828125 1874.550781 1440.828125 1827.410156 C 1440.828125 1778.941406 1515.929688 1778.941406 1515.929688 1827.410156 L 1515.929688 2058.078125 C 1519.421875 2143.21875 1456.671875 2197.140625 1374.980469 2197.140625 Z M 2112.589844 2221.859375 C 2030.921875 2221.859375 1968.160156 2167.890625 1971.640625 2082.789062 L 1971.640625 1852.128906 C 1971.640625 1803.671875 2046.761719 1803.671875 2046.761719 1852.128906 C 2046.761719 1897.660156 2049.730469 2054.871094 2046.578125 2088.011719 C 2039.109375 2166.628906 2186.269531 2166.53125 2178.578125 2088.011719 C 2175.449219 2056 2178.410156 1896.800781 2178.410156 1852.128906 C 2178.410156 1803.671875 2253.519531 1803.671875 2253.519531 1852.128906 L 2253.519531 2082.789062 C 2257 2167.890625 2194.28125 2221.859375 2112.589844 2221.859375 Z M 1744.011719 2301.660156 C 1719.78125 2301.660156 1701.359375 2278.078125 1707.730469 2254.359375 L 1846.171875 1737.699219 C 1858.699219 1690.898438 1931.269531 1710.328125 1918.710938 1757.160156 L 1780.269531 2273.828125 C 1775.78125 2290.589844 1760.601562 2301.660156 1744.011719 2301.660156 Z M 1678.230469 2665.738281 L 1678.230469 2778.730469 C 1678.230469 2799.5 1695.03125 2816.300781 1715.78125 2816.300781 L 2157.210938 2816.300781 C 2177.640625 2816.300781 2194.769531 2799.179688 2194.769531 2778.730469 L 2194.761719 2665.738281 L 3098.628906 2665.71875 C 3079.851562 2837.160156 2934.179688 2971.03125 2757.808594 2971.03125 L 1115.199219 2971.03125 C 938.824219 2971.03125 793.132812 2837.179688 774.367188 2665.738281 Z M 871.386719 2590.609375 L 734.761719 2590.609375 C 714.011719 2590.609375 697.207031 2607.429688 697.207031 2628.171875 C 697.207031 2858.628906 884.722656 3046.148438 1115.191406 3046.148438 L 2757.808594 3046.148438 C 2988.269531 3046.148438 3175.769531 2858.628906 3175.769531 2628.171875 C 3175.769531 2607.429688 3158.960938 2590.628906 3138.199219 2590.628906 L 3001.589844 2590.628906 L 3001.589844 1269.019531 C 3001.589844 1025.199219 2850.609375 826.820312 2665.050781 826.820312 L 1207.960938 826.820312 C 1022.359375 826.820312 871.386719 1025.199219 871.386719 1269.050781 Z M 2926.480469 2590.628906 L 2926.480469 1269.019531 C 2926.480469 1066.601562 2809.210938 901.910156 2665.050781 901.910156 L 1207.960938 901.910156 C 1063.800781 901.910156 946.496094 1066.601562 946.496094 1269.03125 L 946.496094 2590.609375 L 1716.761719 2590.628906 L 1718.679688 2590.730469 L 1719.628906 2590.820312 L 1720.570312 2590.921875 L 1721.511719 2591.058594 L 1722.429688 2591.21875 L 1723.359375 2591.378906 L 1724.269531 2591.589844 L 1725.179688 2591.808594 L 1726.078125 2592.050781 L 1726.960938 2592.300781 L 1727.828125 2592.601562 L 1728.710938 2592.890625 L 1729.558594 2593.230469 L 1730.410156 2593.558594 L 1731.25 2593.941406 L 1732.078125 2594.308594 L 1732.890625 2594.71875 L 1733.691406 2595.160156 L 1734.488281 2595.589844 L 1736.03125 2596.539062 L 1736.789062 2597.03125 L 1737.53125 2597.539062 L 1738.261719 2598.070312 L 1738.980469 2598.621094 L 1739.679688 2599.199219 L 1740.371094 2599.769531 L 1741.050781 2600.378906 L 1741.699219 2600.988281 L 1742.351562 2601.621094 C 1742.351562 2602.328125 1753.339844 2617.460938 1753.339844 2628.171875 L 1753.339844 2741.191406 L 2119.660156 2741.191406 L 2119.640625 2628.171875 C 2119.390625 2601.070312 2133.648438 2599.730469 2149.628906 2591.378906 L 2155.261719 2590.671875 L 2157.191406 2590.609375 L 2157.679688 2590.628906 Z M 2655.460938 1549.558594 L 1217.578125 1549.558594 C 1169.109375 1549.558594 1169.109375 1474.449219 1217.578125 1474.449219 L 2655.460938 1474.449219 C 2703.921875 1474.449219 2703.898438 1549.558594 2655.460938 1549.558594 Z M 2655.460938 1339.519531 L 1217.578125 1339.519531 C 1169.109375 1339.519531 1169.109375 1264.410156 1217.578125 1264.410156 L 2655.460938 1264.410156 C 2703.921875 1264.410156 2703.898438 1339.519531 2655.460938 1339.519531 Z M 2598.660156 2221.089844 C 2586.921875 2221.089844 2575.378906 2215.660156 2568.050781 2205.351562 L 2481.019531 2083.320312 L 2389.480469 2206 C 2360.578125 2244.648438 2299.871094 2200.488281 2329.261719 2161.070312 L 2435.199219 2019.078125 L 2332.101562 1874.511719 C 2303.96875 1835.058594 2365.070312 1791.410156 2393.238281 1830.898438 L 2482.378906 1955.871094 L 2571.789062 1836.050781 C 2600.75 1797.230469 2660.988281 1842.058594 2632.019531 1880.96875 L 2528.199219 2020.101562 L 2629.21875 2161.71875 C 2646.808594 2186.421875 2627.980469 2221.089844 2598.660156 2221.089844 " /></clipPath><linearGradient id="linear-pattern-0" gradientUnits="userSpaceOnUse" x1="0" y1="0" x2="1.000001" y2="0" gradientTransform="matrix(2478.56, 0, 0, 2478.56, 697.207, 1936.48)"><stop offset="0" stop-color="rgb(94.508362%, 95.684814%, 98.03772%)" stop-opacity="1" /><stop offset="0.0078125" stop-color="rgb(94.314575%, 95.552063%, 97.976685%)" stop-opacity="1" /><stop offset="0.015625" stop-color="rgb(93.928528%, 95.285034%, 97.854614%)" stop-opacity="1" /><stop offset="0.0234375" stop-color="rgb(93.54248%, 95.018005%, 97.732544%)" stop-opacity="1" /><stop offset="0.03125" stop-color="rgb(93.156433%, 94.752502%, 97.608948%)" stop-opacity="1" /><stop offset="0.0390625" stop-color="rgb(92.770386%, 94.485474%, 97.486877%)" stop-opacity="1" /><stop offset="0.046875" stop-color="rgb(92.385864%, 94.218445%, 97.364807%)" stop-opacity="1" /><stop offset="0.0546875" stop-color="rgb(91.999817%, 93.952942%, 97.241211%)" stop-opacity="1" /><stop offset="0.0625" stop-color="rgb(91.61377%, 93.685913%, 97.119141%)" stop-opacity="1" /><stop offset="0.0703125" stop-color="rgb(91.227722%, 93.418884%, 96.99707%)" stop-opacity="1" /><stop offset="0.078125" stop-color="rgb(90.841675%, 93.153381%, 96.873474%)" stop-opacity="1" /><stop offset="0.0859375" stop-color="rgb(90.455627%, 92.886353%, 96.751404%)" stop-opacity="1" /><stop offset="0.09375" stop-color="rgb(90.06958%, 92.619324%, 96.629333%)" stop-opacity="1" /><stop offset="0.101562" stop-color="rgb(89.683533%, 92.353821%, 96.505737%)" stop-opacity="1" /><stop offset="0.109375" stop-color="rgb(89.297485%, 92.086792%, 96.383667%)" stop-opacity="1" /><stop offset="0.117188" stop-color="rgb(88.911438%, 91.819763%, 96.261597%)" stop-opacity="1" /><stop offset="0.125" stop-color="rgb(88.525391%, 91.55426%, 96.138%)" stop-opacity="1" /><stop offset="0.132812" stop-color="rgb(88.139343%, 91.287231%, 96.01593%)" stop-opacity="1" /><stop offset="0.140625" stop-color="rgb(87.753296%, 91.020203%, 95.89386%)" stop-opacity="1" /><stop offset="0.148438" stop-color="rgb(87.367249%, 90.753174%, 95.77179%)" stop-opacity="1" /><stop offset="0.15625" stop-color="rgb(86.981201%, 90.487671%, 95.648193%)" stop-opacity="1" /><stop offset="0.164062" stop-color="rgb(86.595154%, 90.220642%, 95.526123%)" stop-opacity="1" /><stop offset="0.171875" stop-color="rgb(86.209106%, 89.953613%, 95.404053%)" stop-opacity="1" /><stop offset="0.179688" stop-color="rgb(85.823059%, 89.68811%, 95.280457%)" stop-opacity="1" /><stop offset="0.1875" stop-color="rgb(85.437012%, 89.421082%, 95.158386%)" stop-opacity="1" /><stop offset="0.195312" stop-color="rgb(85.050964%, 89.154053%, 95.036316%)" stop-opacity="1" /><stop offset="0.203125" stop-color="rgb(84.664917%, 88.88855%, 94.91272%)" stop-opacity="1" /><stop offset="0.210938" stop-color="rgb(84.27887%, 88.621521%, 94.790649%)" stop-opacity="1" /><stop offset="0.21875" stop-color="rgb(83.892822%, 88.354492%, 94.668579%)" stop-opacity="1" /><stop offset="0.226562" stop-color="rgb(83.506775%, 88.088989%, 94.544983%)" stop-opacity="1" /><stop offset="0.234375" stop-color="rgb(83.120728%, 87.82196%, 94.422913%)" stop-opacity="1" /><stop offset="0.242188" stop-color="rgb(82.73468%, 87.554932%, 94.300842%)" stop-opacity="1" /><stop offset="0.25" stop-color="rgb(82.348633%, 87.289429%, 94.177246%)" stop-opacity="1" /><stop offset="0.257812" stop-color="rgb(81.962585%, 87.0224%, 94.055176%)" stop-opacity="1" /><stop offset="0.265625" stop-color="rgb(81.576538%, 86.755371%, 93.933105%)" stop-opacity="1" /><stop offset="0.273437" stop-color="rgb(81.190491%, 86.489868%, 93.809509%)" stop-opacity="1" /><stop offset="0.28125" stop-color="rgb(80.804443%, 86.222839%, 93.687439%)" stop-opacity="1" /><stop offset="0.289063" stop-color="rgb(80.418396%, 85.955811%, 93.565369%)" stop-opacity="1" /><stop offset="0.296875" stop-color="rgb(80.032349%, 85.690308%, 93.443298%)" stop-opacity="1" /><stop offset="0.304688" stop-color="rgb(79.646301%, 85.423279%, 93.319702%)" stop-opacity="1" /><stop offset="0.3125" stop-color="rgb(79.260254%, 85.15625%, 93.197632%)" stop-opacity="1" /><stop offset="0.320312" stop-color="rgb(78.874207%, 84.889221%, 93.075562%)" stop-opacity="1" /><stop offset="0.328125" stop-color="rgb(78.488159%, 84.623718%, 92.951965%)" stop-opacity="1" /><stop offset="0.335937" stop-color="rgb(78.102112%, 84.356689%, 92.829895%)" stop-opacity="1" /><stop offset="0.34375" stop-color="rgb(77.716064%, 84.089661%, 92.707825%)" stop-opacity="1" /><stop offset="0.351563" stop-color="rgb(77.330017%, 83.824158%, 92.584229%)" stop-opacity="1" /><stop offset="0.359375" stop-color="rgb(76.94397%, 83.557129%, 92.462158%)" stop-opacity="1" /><stop offset="0.367188" stop-color="rgb(76.557922%, 83.2901%, 92.340088%)" stop-opacity="1" /><stop offset="0.375" stop-color="rgb(76.171875%, 83.024597%, 92.216492%)" stop-opacity="1" /><stop offset="0.382812" stop-color="rgb(75.785828%, 82.757568%, 92.094421%)" stop-opacity="1" /><stop offset="0.390625" stop-color="rgb(75.39978%, 82.49054%, 91.972351%)" stop-opacity="1" /><stop offset="0.398437" stop-color="rgb(75.013733%, 82.225037%, 91.848755%)" stop-opacity="1" /><stop offset="0.40625" stop-color="rgb(74.627686%, 81.958008%, 91.726685%)" stop-opacity="1" /><stop offset="0.414063" stop-color="rgb(74.241638%, 81.690979%, 91.604614%)" stop-opacity="1" /><stop offset="0.421875" stop-color="rgb(73.855591%, 81.425476%, 91.482544%)" stop-opacity="1" /><stop offset="0.429688" stop-color="rgb(73.469543%, 81.158447%, 91.358948%)" stop-opacity="1" /><stop offset="0.4375" stop-color="rgb(73.083496%, 80.891418%, 91.236877%)" stop-opacity="1" /><stop offset="0.445312" stop-color="rgb(72.697449%, 80.625916%, 91.114807%)" stop-opacity="1" /><stop offset="0.453125" stop-color="rgb(72.311401%, 80.358887%, 90.991211%)" stop-opacity="1" /><stop offset="0.460937" stop-color="rgb(71.925354%, 80.091858%, 90.869141%)" stop-opacity="1" /><stop offset="0.46875" stop-color="rgb(71.539307%, 79.826355%, 90.74707%)" stop-opacity="1" /><stop offset="0.476563" stop-color="rgb(71.153259%, 79.559326%, 90.623474%)" stop-opacity="1" /><stop offset="0.484375" stop-color="rgb(70.767212%, 79.292297%, 90.501404%)" stop-opacity="1" /><stop offset="0.492188" stop-color="rgb(70.381165%, 79.025269%, 90.379333%)" stop-opacity="1" /><stop offset="0.5" stop-color="rgb(69.995117%, 78.759766%, 90.255737%)" stop-opacity="1" /><stop offset="0.507812" stop-color="rgb(69.60907%, 78.492737%, 90.133667%)" stop-opacity="1" /><stop offset="0.515625" stop-color="rgb(69.223022%, 78.225708%, 90.011597%)" stop-opacity="1" /><stop offset="0.523438" stop-color="rgb(68.836975%, 77.960205%, 89.888%)" stop-opacity="1" /><stop offset="0.53125" stop-color="rgb(68.450928%, 77.693176%, 89.76593%)" stop-opacity="1" /><stop offset="0.539062" stop-color="rgb(68.06488%, 77.426147%, 89.64386%)" stop-opacity="1" /><stop offset="0.546875" stop-color="rgb(67.678833%, 77.160645%, 89.520264%)" stop-opacity="1" /><stop offset="0.554687" stop-color="rgb(67.292786%, 76.893616%, 89.398193%)" stop-opacity="1" /><stop offset="0.5625" stop-color="rgb(66.906738%, 76.626587%, 89.276123%)" stop-opacity="1" /><stop offset="0.570313" stop-color="rgb(66.520691%, 76.361084%, 89.154053%)" stop-opacity="1" /><stop offset="0.578125" stop-color="rgb(66.134644%, 76.094055%, 89.030457%)" stop-opacity="1" /><stop offset="0.585938" stop-color="rgb(65.748596%, 75.827026%, 88.908386%)" stop-opacity="1" /><stop offset="0.59375" stop-color="rgb(65.362549%, 75.561523%, 88.786316%)" stop-opacity="1" /><stop offset="0.601562" stop-color="rgb(64.976501%, 75.294495%, 88.66272%)" stop-opacity="1" /><stop offset="0.609375" stop-color="rgb(64.590454%, 75.027466%, 88.540649%)" stop-opacity="1" /><stop offset="0.617188" stop-color="rgb(64.204407%, 74.761963%, 88.418579%)" stop-opacity="1" /><stop offset="0.625" stop-color="rgb(63.818359%, 74.494934%, 88.294983%)" stop-opacity="1" /><stop offset="0.632812" stop-color="rgb(63.432312%, 74.227905%, 88.172913%)" stop-opacity="1" /><stop offset="0.640625" stop-color="rgb(63.046265%, 73.960876%, 88.050842%)" stop-opacity="1" /><stop offset="0.648438" stop-color="rgb(62.660217%, 73.695374%, 87.927246%)" stop-opacity="1" /><stop offset="0.65625" stop-color="rgb(62.27417%, 73.428345%, 87.805176%)" stop-opacity="1" /><stop offset="0.664062" stop-color="rgb(61.888123%, 73.161316%, 87.683105%)" stop-opacity="1" /><stop offset="0.671875" stop-color="rgb(61.502075%, 72.895813%, 87.559509%)" stop-opacity="1" /><stop offset="0.679687" stop-color="rgb(61.116028%, 72.628784%, 87.437439%)" stop-opacity="1" /><stop offset="0.6875" stop-color="rgb(60.72998%, 72.361755%, 87.315369%)" stop-opacity="1" /><stop offset="0.695313" stop-color="rgb(60.343933%, 72.096252%, 87.193298%)" stop-opacity="1" /><stop offset="0.703125" stop-color="rgb(59.957886%, 71.829224%, 87.069702%)" stop-opacity="1" /><stop offset="0.710938" stop-color="rgb(59.571838%, 71.562195%, 86.947632%)" stop-opacity="1" /><stop offset="0.71875" stop-color="rgb(59.185791%, 71.296692%, 86.825562%)" stop-opacity="1" /><stop offset="0.726562" stop-color="rgb(58.799744%, 71.029663%, 86.701965%)" stop-opacity="1" /><stop offset="0.734375" stop-color="rgb(58.415222%, 70.762634%, 86.579895%)" stop-opacity="1" /><stop offset="0.742188" stop-color="rgb(58.029175%, 70.497131%, 86.457825%)" stop-opacity="1" /><stop offset="0.75" stop-color="rgb(57.643127%, 70.230103%, 86.334229%)" stop-opacity="1" /><stop offset="0.757812" stop-color="rgb(57.25708%, 69.963074%, 86.212158%)" stop-opacity="1" /><stop offset="0.765625" stop-color="rgb(56.871033%, 69.697571%, 86.090088%)" stop-opacity="1" /><stop offset="0.773438" stop-color="rgb(56.484985%, 69.430542%, 85.966492%)" stop-opacity="1" /><stop offset="0.78125" stop-color="rgb(56.098938%, 69.163513%, 85.844421%)" stop-opacity="1" /><stop offset="0.789062" stop-color="rgb(55.712891%, 68.89801%, 85.722351%)" stop-opacity="1" /><stop offset="0.796875" stop-color="rgb(55.326843%, 68.630981%, 85.598755%)" stop-opacity="1" /><stop offset="0.804687" stop-color="rgb(54.940796%, 68.363953%, 85.476685%)" stop-opacity="1" /><stop offset="0.8125" stop-color="rgb(54.554749%, 68.096924%, 85.354614%)" stop-opacity="1" /><stop offset="0.820313" stop-color="rgb(54.168701%, 67.831421%, 85.232544%)" stop-opacity="1" /><stop offset="0.828125" stop-color="rgb(53.782654%, 67.564392%, 85.108948%)" stop-opacity="1" /><stop offset="0.835938" stop-color="rgb(53.396606%, 67.297363%, 84.986877%)" stop-opacity="1" /><stop offset="0.84375" stop-color="rgb(53.010559%, 67.03186%, 84.864807%)" stop-opacity="1" /><stop offset="0.851562" stop-color="rgb(52.624512%, 66.764832%, 84.741211%)" stop-opacity="1" /><stop offset="0.859375" stop-color="rgb(52.238464%, 66.497803%, 84.619141%)" stop-opacity="1" /><stop offset="0.867188" stop-color="rgb(51.852417%, 66.2323%, 84.49707%)" stop-opacity="1" /><stop offset="0.875" stop-color="rgb(51.46637%, 65.965271%, 84.373474%)" stop-opacity="1" /><stop offset="0.882812" stop-color="rgb(51.080322%, 65.698242%, 84.251404%)" stop-opacity="1" /><stop offset="0.890625" stop-color="rgb(50.694275%, 65.432739%, 84.129333%)" stop-opacity="1" /><stop offset="0.898438" stop-color="rgb(50.308228%, 65.16571%, 84.005737%)" stop-opacity="1" /><stop offset="0.90625" stop-color="rgb(49.92218%, 64.898682%, 83.883667%)" stop-opacity="1" /><stop offset="0.914062" stop-color="rgb(49.536133%, 64.633179%, 83.761597%)" stop-opacity="1" /><stop offset="0.921875" stop-color="rgb(49.150085%, 64.36615%, 83.638%)" stop-opacity="1" /><stop offset="0.929687" stop-color="rgb(48.764038%, 64.099121%, 83.51593%)" stop-opacity="1" /><stop offset="0.9375" stop-color="rgb(48.377991%, 63.833618%, 83.39386%)" stop-opacity="1" /><stop offset="0.945313" stop-color="rgb(47.991943%, 63.566589%, 83.270264%)" stop-opacity="1" /><stop offset="0.953125" stop-color="rgb(47.605896%, 63.299561%, 83.148193%)" stop-opacity="1" /><stop offset="0.960938" stop-color="rgb(47.219849%, 63.032532%, 83.026123%)" stop-opacity="1" /><stop offset="0.96875" stop-color="rgb(46.833801%, 62.767029%, 82.904053%)" stop-opacity="1" /><stop offset="0.976562" stop-color="rgb(46.447754%, 62.5%, 82.780457%)" stop-opacity="1" /><stop offset="0.984375" stop-color="rgb(46.061707%, 62.232971%, 82.658386%)" stop-opacity="1" /><stop offset="0.992188" stop-color="rgb(45.675659%, 61.967468%, 82.536316%)" stop-opacity="1" /><stop offset="1" stop-color="rgb(45.289612%, 61.700439%, 82.41272%)" stop-opacity="1" /></linearGradient></defs><g clip-path="url(#clip-0)"><path fill-rule="evenodd" fill="rgb(20.776367%, 43.138123%, 77.34375%)" fill-opacity="1" d="M 1936.480469 0 C 3001.570312 0 3872.96875 871.410156 3872.96875 1936.480469 C 3872.96875 3001.570312 3001.570312 3872.96875 1936.480469 3872.96875 C 871.40625 3872.96875 0 3001.570312 0 1936.480469 C 0 871.410156 871.40625 0 1936.480469 0 " /></g><g clip-path="url(#clip-1)"><g clip-path="url(#clip-2)"><path fill-rule="nonzero" fill="url(#linear-pattern-0)" d="M 697.207031 826.820312 L 697.207031 3046.148438 L 3175.769531 3046.148438 L 3175.769531 826.820312 Z M 697.207031 826.820312 " /></g></g></svg>